<svg version="1.1" xmlns="http://www.w3.org/2000/svg" xmlns:xlink="http://www.w3.org/1999/xlink" width="151" height="151" viewBox="0 0 151 151"><g transform="scale(0.94375,0.94375) rotate(0,80,80)" fill-opacity="1">
	<g id="shapebg"><circle cx="80" cy="80" r="80" fill="#FFFFFF" display="inline"/></g>
	<g>
		<g id="ringback" display="inline">
			<g id="ringback_solid" display="inline">
				<use xlink:href="#ringsolid_shape" fill="#FF0100"/>
			</g>
			<g id="ringback_sawtooth" display="none">
				<use xlink:href="#ringsawtooth_shape" fill="#FF0100"/>
			</g>
		</g>

		<g id="ringfore" mask="url(#ringforemask)" display="none" transform="rotate(0,80,80)">
			<g id="ringlinernd">
				<path fill="#FF0100" d="M128.8,23.7l2.8-4.9c-9.5-8.1-20.5-13.6-32.8-16.5l3.8,6.7C112.4,12,121.1,16.9,128.8,23.7zM136.6,23.4c-1.4-1.3-2.8-2.6-4.3-3.9l-2.7,4.8c1.1,1,2.1,1.9,3.1,3c8.6,8.6,14.7,18.6,18.2,29.9l6.8,3.9C154.3,46.6,147.2,34.1,136.6,23.4zM101.3,8.7L97.4,2C91.9,0.8,86.1,0.1,80,0C65.2,0.3,52.1,3.8,40.5,10.4v6.4C51.9,9.7,65,5.8,80,5.5C87.6,5.7,94.6,6.7,101.3,8.7zM151.3,58.6c2,6.6,3,13.8,3.2,21.4c-0.1,5.5-0.7,10.8-1.8,15.8l4,6.9c2-7.1,3.1-14.7,3.3-22.7c-0.1-6.2-0.8-12-2-17.6L151.3,58.6zM39.5,10.9c-5.7,3.4-11.1,7.6-16,12.5c-5,5-9.1,10.3-12.5,16h6.4c2.9-4.3,6.2-8.3,9.9-12.1c3.8-3.8,7.8-7.1,12.2-9.9V10.9zM16.8,40.4h-6.4c-2.8,5-5.1,10.3-6.7,15.8L7.6,63C9.4,54.8,12.5,47.3,16.8,40.4zM3.3,57.5C1.3,64.5,0.2,72,0,80c0.4,14.7,3.8,27.9,10.4,39.4h6.4C9.6,108,5.9,94.9,5.5,80c0.2-5.5,0.7-10.7,1.8-15.6L3.3,57.5zM11,120.4c3.3,5.8,7.5,11.2,12.5,16.1c4.9,5,10.2,9.1,16,12.5l-0.1-6.4c-4.3-2.9-8.3-6.2-12.1-9.9c-3.8-3.9-7.1-7.9-9.9-12.3H11zM62.4,157.9c5.6,1.2,11.5,1.9,17.6,2.1c14.8-0.4,28-3.8,39.5-10.4v-6.4c-11.4,7.2-24.5,10.9-39.5,11.3c-7.6-0.2-14.7-1.3-21.4-3.2L62.4,157.9zM61.1,157.6l-3.9-6.7c-5.9-1.9-11.5-4.5-16.8-7.7l0.1,6.4C46.8,153.2,53.7,155.9,61.1,157.6zM136.6,136.5c9.4-9.3,16-20.2,19.7-32.5l-3.9-6.8c-3.1,13.7-9.7,25.5-19.7,35.5c-3.8,3.8-7.8,7.1-12.2,9.9v6.4C126.3,145.6,131.6,141.5,136.6,136.5z"/>
				<g>
					<path fill="#FF0100" d="M101.2,8.7c0.5,0.1,1,0.2,1.4,0.3l-3.8-6.7c-0.5-0.1-0.9-0.2-1.4-0.3L101.2,8.7z"/>
					<path fill="#FF0100" d="M129.6,24.3l2.7-4.8c-0.2-0.2-0.5-0.4-0.7-0.7l-2.8,4.9C129.1,23.9,129.3,24.1,129.6,24.3z"/>
					<path fill="#FF0100" d="M151,57.2c0.1,0.5,0.2,0.9,0.3,1.4l6.7,3.8c-0.1-0.4-0.2-0.9-0.3-1.3L151,57.2z"/>
					<path fill="#FF0100" d="M152.4,97.3l3.9,6.7c0.2-0.6,0.4-1.2,0.5-1.8c0,0.1-0.1,0.3-0.1,0.5l-3.9-6.9C152.6,96.3,152.5,96.8,152.4,97.3z"/>
					<path fill="#FF0100" d="M119.5,143.2v6.4c0.4-0.2,0.7-0.4,1-0.6v-6.4C120.2,142.8,119.9,143.1,119.5,143.2z"/>
					<path fill="#FF0100" d="M62.4,157.9l-3.8-6.6c-0.5-0.1-0.9-0.3-1.4-0.4l3.9,6.7C61.6,157.7,62,157.9,62.4,157.9z"/>
					<path fill="#FF0100" d="M39.5,149c-0.4-0.2-0.7-0.4-1-0.6c1,0.7,2.1,1.3,3.1,1.8c-0.4-0.2-0.8-0.4-1.1-0.6l-0.1-6.4c-0.3-0.3-0.6-0.5-1-0.6L39.5,149z"/>
					<path fill="#FF0100" d="M11,120.4h6.4c-0.2-0.3-0.5-0.6-0.6-1h-6.4C10.6,119.8,10.8,120.1,11,120.4z"/>
					<path fill="#FF0100" d="M3.7,56.2c-0.2,0.4-0.3,0.9-0.4,1.3l4,6.9c0.1-0.5,0.2-1,0.3-1.4L3.7,56.2z"/>
					<path fill="#FF0100" d="M11,39.4c-0.2,0.4-0.4,0.7-0.6,1h6.4c0.2-0.3,0.4-0.6,0.6-1H11z"/>
					<path fill="#FF0100" d="M40.5,10.4c-0.3,0.1-0.6,0.3-1,0.5v6.5c0.4-0.2,0.7-0.5,1-0.7V10.4z"/>
				</g>
			</g>
			<g id="ringlineobl">
				<path fill="#FF0100" d="M132.7,27.3c3.9,3.9,7.1,7.9,10,12.2h6.4c-3.4-5.7-7.6-11.1-12.5-16.1c-4.8-4.7-9.9-8.7-15.5-12.1l-5.5,3.2C121.8,17.8,127.5,22.1,132.7,27.3zM149.7,40.5h-6.4c6.5,10.6,10.3,22.6,11.1,36.2l5.6,1.5C159.4,64.1,155.9,51.6,149.7,40.5zM114.6,13.9l5.6-3.2C108.5,3.9,95.1,0.3,80,0c0,0-0.1,0-0.2,0l1.5,5.5C93.6,6,104.7,8.8,114.6,13.9zM160,80c0-0.3,0-0.6,0-0.8l-5.6-1.5c0.1,0.7,0.1,1.5,0.1,2.3c-0.3,13.5-3.4,25.6-9.3,36.3l5.9,0.6C156.7,106,159.7,93.7,160,80zM80.3,5.5L78.8,0C63.7,0.6,50.4,4.4,38.7,11.4l7.6,2.1c10-5.1,21.2-7.7,33.7-8C80.1,5.5,80.2,5.5,80.3,5.5zM23.5,23.4c-5.2,5.2-9.6,10.8-13,16.9l7.7-2c2.7-3.9,5.7-7.6,9.1-11c5.3-5.4,11.3-9.8,17.7-13.1l-7.5-2C32.5,15.3,27.8,19.1,23.5,23.4zM17.4,39.5l-7.6,2C4.3,51.7,1.1,63,0.2,75.7l5.4,3.1C6.1,63.9,10.1,50.8,17.4,39.5zM5.5,80c0-0.1,0-0.1,0-0.1l-5.3-3.1c-0.1,1-0.1,2.1-0.2,3.2c0.4,13.2,3.2,25.1,8.4,35.7l7.3,2C9.3,106.7,5.9,94.1,5.5,80zM40,142.9c-4.5-2.9-8.7-6.3-12.7-10.2c-4.2-4.3-7.9-8.8-10.9-13.8l-7.4-2c3.7,7.2,8.5,13.7,14.5,19.6c5,5.1,10.6,9.4,16.5,12.8V142.9zM80,154.5c-0.7-0.1-1.4-0.1-2.2-0.1l5.4,5.4c13.7-0.7,26-4.2,36.8-10.5l-1.4-5.4C107.4,150.6,94.5,154.1,80,154.5zM41,149.9c11.5,6.3,24.5,9.7,39,10.1c0.7,0,1.3,0,1.9-0.1l-5.6-5.6c-13.2-0.8-25-4.4-35.3-10.7V149.9zM136.6,136.5c5.7-5.7,10.3-11.9,14-18.7l-6-0.6c-3.2,5.6-7.1,10.7-11.9,15.5c-4.1,4.1-8.5,7.7-13.3,10.6l1.5,5.5C126.5,145.5,131.7,141.4,136.6,136.5z"/>
			</g>
			<g id="ringlineavg">
				<circle cx="0" cy="0" r="80" fill="none" stroke="#FF0100" stroke-width="11" stroke-dasharray="166.3 1" transform="translate(80,80) rotate(-90)"/>
			</g>
			<g id="ringlinespi">
				<circle cx="0" cy="0" r="80" fill="none" stroke="#FF0100" stroke-width="11" stroke-dasharray="117.8 1 190.5 1 190.5" transform="translate(80,80) rotate(90)"/>
			</g>
		</g>

		<g id="centerline" display="none">
			<path id="linepath" fill="#FF0100" d="M 80, 80m -21, -1h-24 v2 h24 zM 80, 80m21, -1h24 v2 h-24 z"/>
 		</g>
		<g id="centersign" transform="translate(0,0)">
			<g id="signstar" display="none" transform="translate(0,0) scale(1,1)">
				<g transform="rotate(0,80,80)">
					<g id="signstarfill">
						<use xlink:href="#signstar_shape" fill="#FF0100"/>
					</g>
					<g id="signstarline" display="none" mask="url(#signstar_shapemask)">
						<use xlink:href="#signstar_shape" fill="none" stroke="#FF0100" stroke-width="1.5"/>
					</g>
				</g>
			</g>
			<g id="signparty" display="none" transform="translate(0,0) scale(1,1)">
				<g transform="rotate(0,80,80)">
					<g id="signpartyfill">
						<use xlink:href="#signparty_shape" fill="#FF0100"/>
					</g>
					<g id="signpartyline" display="none" mask="url(#signparty_shapemask)">
						<use xlink:href="#signparty_shape" fill="none" stroke="#FF0100" stroke-width="1.5"/>
					</g>
				</g>
			</g>
			<g id="signcustom" display="none" transform="translate(0,0) scale(1,1)">
				<g transform="rotate(0,80,80)">
					<g id="signcustompic">
						<image id="signcustomimage" xlink:href=""/>
					</g>
				</g>
			</g>
		</g>

		<defs>
			<g id="signstar_shape">
				<polygon class="maskpath" points="79.5,58.5 84.633,73.722 100.563,73.722 87.818,83.277 92.42,98.5 79.5,89.475 66.58,98.5 71.182,83.277 58.438,73.722 74.367,73.722"/>
			</g>
			<mask id="signstar_shapemask">
				<use xlink:href="#signstar_shape" fill="#FFFFFF"/>
			</mask>

			<g id="signparty_shape">
				<path class="maskpath" d="M80.448,58.475c10.11,3.89,16.197,16.188,10.938,26.069L78.592,71.51l4.953-4.941l-3.097-3.153c-1.651,1.683-4.333,1.999-6.19,1.261l-9.699,9.985l5.572,5.571l3.61-3.784l12.792,13.035c-6.292,3.574-14.958,2.418-21.354-4.311l-2.992,3.156c0.826,1.258,1.65,2.414,2.579,3.466c0,0.104-0.309,0.316-0.309,0.316c-0.207,0-0.413-0.105-0.517-0.105c-1.65,0-2.993,1.47-2.993,3.153c0,1.682,1.342,3.047,2.993,3.047s3.095-1.365,3.095-3.047c0-0.209-0.103-0.421-0.103-0.525l0.412-0.525c7.429,5.045,15.477,5.677,24.142,0.423l3.508,3.675l4.953-4.938l-3.612-3.682C106.654,73.717,92.831,58.054,80.448,58.475"/>
			</g>
			<mask id="signparty_shapemask">
				<use xlink:href="#signparty_shape" fill="#FFFFFF"/>
			</mask>

			<mask id="signfingermask">
				<g transform="rotate(0,80,80) translate(42.5,42.5) scale(0.46875,0.46875)">
					<path class="maskpath" fill="#FFFFFF" d="M160.001,80.001c0-22.1-7.8-41-23.4-56.6c-15.7-15.7-34.5-23.5-56.6-23.4c-22.1-0.1-40.9,7.7-56.6,23.4c-15.6,15.6-23.5,34.5-23.4,56.6c-0.1,22,7.8,40.9,23.4,56.5c15.7,15.6,34.5,23.4,56.6,23.5c22.1-0.1,40.9-7.9,56.6-23.5C152.201,120.901,160.001,102.001,160.001,80.001z"/>
					<path class="maskpath" fill="#000000" d="M113.901,48.101c-6.4-8.8-14.9-14-25.5-15.8c-19.1-2.4-33,0.5-41.7,8.8c-8.8,8.3-15.7,18.3-20.8,29.9c-3,6.2-6.4,12.1-10.1,17.9c-3.5,5.3-7.7,9.9-12.7,13.6h-0.1c0.3,0.8,0.5,1.6,0.7,2.3h0.1c5.5-3.9,10.1-8.8,13.8-14.5c3.8-5.8,7.3-11.9,10.4-18.2c5.1-11.7,11.9-21.5,20.2-29.3c8.2-7.9,21.5-10.6,39.8-8.2c10.1,1.7,18.2,6.7,24.2,15.1c6,8.4,9.5,19.5,10.4,33.1c0.8,13.5-1.1,27.1-5.8,41.1c-4.2,12.6-10.7,24.1-19.4,34.3c1.2-0.2,2.4-0.5,3.7-0.9c7.9-9.8,13.9-20.7,17.9-32.7c4.8-14.2,6.8-28.1,6-41.9C124.001,68.501,120.301,56.901,113.901,48.101zM89.401,26.901c11.5,1.8,20.8,7.4,27.8,16.8c7.1,9.4,11.3,21.7,12.8,37c1.2,14.3-0.3,28.7-4.5,43.4c-3.1,10.5-7.4,20.3-13.1,29.3c1.3-0.6,2.5-1.2,3.8-1.9c4.9-8.3,8.7-17.2,11.5-26.7c4.3-15,5.8-29.8,4.6-44.3c-1.5-15.9-5.9-28.7-13.3-38.4c-7.5-9.7-17.2-15.6-29.2-17.4c-18.7-3-33.8,0-45.6,9c-10.7,7.8-21.2,22.8-31.7,45.3c-2.7,5.8-6.5,10.6-11.5,14.1l0,0c0.1,0.7,0.2,1.4,0.3,2.1h0.1c0.2,0.1,0.6,0,0.9-0.2c5.4-3.7,9.5-8.8,12.3-15.1c10.2-22.1,21-37.2,32.3-45.2C58.301,26.701,72.401,24.001,89.401,26.901zM92.901,21.001c11.2,3.2,19.9,8.4,26.2,15.3c6.2,7,10.6,14.5,13.4,22.5c2.6,7.9,4.3,15.1,4.8,21.4c1.5,14.5,0.5,28.8-2.8,43c-1.9,7.5-4.2,14.6-7.1,21.3c1.3-0.9,2.6-2,3.8-3.1c3.6-9.5,6.3-19.4,7.8-29.7c1.5-10.9,1.8-21.5,0.7-31.8c-2-16.1-6.9-29.4-14.8-39.9c-8-10.6-18.4-17.7-31.3-21.3c-17.1-4.5-32.5-3-46.6,4.5c-14.5,7.8-26.3,21.5-35.4,41c-2.4,6.2-5.9,11.5-10.4,16.1c-0.5,0.5-0.5,1-0.1,1.6c0.6,0.5,1.1,0.5,1.7,0.1c4.7-4.8,8.4-10.4,10.9-16.8c8.8-18.9,19.9-32,33.5-39.5C60.801,18.101,76.001,16.501,92.901,21.001zM101.401,84.901c-0.2-15.2-4.8-24.6-13.7-28.4c-12.3-4-21.9-2.3-28.9,5.2c-7.1,7.5-13.3,17.2-18.7,29.1c-4.1,8.2-8.5,16-13.4,23.3c-3.3,5-7.2,9.3-11.5,12.8c0.4,0.7,0.9,1.3,1.4,1.9c4.5-3.7,8.4-8.1,11.8-13.2c5-7.5,9.6-15.4,13.7-23.8c5.5-11.7,11.5-21.1,18-28.2s15.4-8.8,26.8-4.9c8,3.3,12,12.1,12.2,26.1c-0.1,7.7-1.5,15.4-4.2,23.5c-2.7,8-6.5,15.7-11.5,23c-7.1,10.3-15.6,18.9-25.6,25.7c0.4,0.2,0.9,0.3,1.4,0.4l1.5,0.4l0,0c3.7-2.7,7.2-5.6,10.5-8.7c9.8-9.6,17.3-20,22.5-31.3C98.701,106.501,101.301,95.501,101.401,84.901zM118.301,84.501c-0.5-12.2-3.5-22.1-8.9-29.9c-5.5-7.7-13-12.7-22.5-14.9c-10.8-2.3-19.6-1.8-26.4,1.5c-6.9,3.3-12.5,8.2-17,14.7c-4.4,6.6-8.5,13.6-12.1,21.2c-3.5,7.2-7.4,14.1-11.6,20.7c-3.7,5.6-8.2,10.3-13.4,14c0.3,0.8,0.6,1.5,0.9,2.2c5.6-4,10.4-8.9,14.2-14.8c4.4-6.7,8.4-13.7,12-21.1c5.2-11.6,11.5-21.3,19.1-29c7.5-7.7,18.7-10.1,33.8-7.2c9,2.1,16.1,6.9,21.2,14.2c5.1,7.4,7.9,16.8,8.4,28.5c0.4,12.4-1.9,25.2-7,38.2c-5.2,13-12.8,24.7-22.9,35.2c-0.6,0.6-1.2,1.2-1.9,1.9c0.6-0.1,1.2-0.1,1.8-0.1c0.5-0.1,1.1-0.1,1.7-0.2c10.3-10.7,18.2-22.7,23.4-36C116.301,110.301,118.701,97.301,118.301,84.501zM92.301,88.301c0.4-11.6-2.1-18.9-7.5-21.8c-9.1-3.5-16.5-1.9-22.5,5c-5.9,6.8-11.4,15.5-16.5,26.2c-4.2,8.4-8.9,16.5-14.2,24.4c-3.1,4.6-6.7,8.6-10.7,11.8c0.5,0.5,1.1,1.1,1.6,1.7c4-3.3,7.6-7.3,10.8-12c5.5-8,10.3-16.3,14.5-24.8c5.1-10.6,10.4-19,15.8-25.3c5.4-6.4,12.2-8,20.2-4.9c4.5,2.5,6.5,9,6.1,19.6c-0.3,7.1-2.4,15.4-6.3,24.9c-4,9.5-10.6,18.7-19.6,27.6c-4.8,4.7-10.4,8.8-16.9,12.4l1.3,0.6c0.4,0.2,0.9,0.4,1.3,0.6c6.1-3.6,11.4-7.5,15.8-11.9c9.4-9.2,16.2-18.7,20.2-28.5C89.801,104.101,92.001,95.601,92.301,88.301zM158.901,67.701c0,0.3,0.2,0.5,0.4,0.7c-1.3-9.2-4-17.7-8.2-25.6C154.601,50.301,157.201,58.601,158.901,67.701zM96.101,14.901c16.4,4.9,28.9,14.3,37.5,28.3c8.5,14,12.4,31.4,11.6,52.1c-0.1,5.3-0.6,12.3-1.6,20.9c-0.6,5.2-1.6,10.5-3,16c1.2-1.4,2.3-2.7,3.4-4.1c0.8-3.9,1.3-7.7,1.8-11.4c1-8.8,1.6-15.9,1.7-21.2c0.8-21.4-3.2-39.3-12-53.7c-8.9-14.4-21.8-24.1-38.8-29.1c-17.1-4.5-33.6-3.5-49.4,3c-15.7,6.5-28,17.4-36.9,32.6c-1.1,2.1-2.3,4.5-3.5,7.2c-1.8,4.1-3.8,7.7-5.8,11c-0.1,0.3-0.1,0.6-0.1,0.8c-0.1,0.1-0.1,0.2-0.1,0.4c0.1,0.2,0.2,0.4,0.4,0.5c0.7,0.4,1.2,0.2,1.7-0.3c2.1-3.5,4.1-7.2,5.9-11.4c1.3-2.6,2.4-5,3.5-7c8.6-14.8,20.5-25.3,35.9-31.7C63.601,11.501,79.501,10.501,96.101,14.901zM143.801,41.101c-6-11.6-14.5-20.7-25.6-27.4c-11.1-6.7-23.8-10.5-38.1-11.3c-12.6-0.5-24.2,1.3-35.1,5.4c-0.1,0.1-0.3,0.1-0.5,0.2c-3.8,1.9-7.5,4.2-11,6.8c-0.2,0.1-0.4,0.2-0.6,0.4c-1.9,1.5-3.9,3-5.8,4.7c0.1-0.1,0.2-0.2,0.3-0.2c3.5-2.5,7.1-4.7,11-6.5c12.7-6.2,26.6-9,41.6-8.5c13.9,0.8,26.2,4.4,37,11c10.7,6.5,19,15.3,24.8,26.4c6.2,12,9.9,26.9,11.2,44.9c0.7,9.6,0.2,19.4-1.5,29.3c1.3-2.4,2.4-4.9,3.4-7.5c0.8-7.4,0.9-14.8,0.4-22.1C154.001,68.501,150.201,53.301,143.801,41.101zM109.401,82.101c-1.4-19.9-9.5-31.8-24.3-35.5c-13.1-2.5-23.4,0.3-30.8,8.3c-7.3,7.9-13.8,17.8-19.5,29.8c-3.8,7.5-8,14.7-12.6,21.7c-3.4,5.1-7.3,9.7-11.7,13.5c0.4,0.7,0.8,1.3,1.2,2c4.7-4,8.8-8.7,12.4-14c4.6-7.1,8.8-14.5,12.8-22.2c5.7-11.8,12-21.5,18.9-29.1c6.9-7.5,16.5-10.1,28.7-7.8c13.8,3.5,21.3,14.7,22.6,33.4c0.5,11.8-1.7,24-6.6,36.6c-4.9,12.5-12.4,23.9-22.3,34.2c-2.2,2.3-4.5,4.5-7,6.5l0,0c0.9,0.1,1.8,0.2,2.8,0.3h0.4c0.1-0.1,0.1-0.2,0.3-0.3c8.3-7.7,14.7-15.2,19-22.5c5.4-8.8,9.5-17.9,12.3-27.4C108.701,100.201,109.801,91.001,109.401,82.101zM73.501,88.301c-0.8-0.5-1.7-0.6-2.7-0.2c-3.4,1.7-7.5,7.7-12.3,18c-4.2,9.1-9.5,18.2-15.9,27.2c-3,4.4-6.5,8.1-10.2,11.1c0.2,0.1,0.4,0.2,0.5,0.4l1.4,1c3.7-3,7-6.5,9.9-10.7c6.6-9.4,12.1-18.7,16.4-27.9c2.2-4.5,4.2-8.2,6.1-11.4c1.8-3.1,3.4-5,4.8-5.5c0.4-0.2,0.7-0.1,1,0c1,0.6,1.7,1.7,1.8,3.2c0,3.8-1.9,8.8-5.8,15.1c-3.8,6.3-8.1,12.3-13,18c-4.8,5.7-8.7,9.7-11.7,12c-0.5,0.4-0.6,1-0.3,1.6c0.5,0.5,1,0.6,1.7,0.3c3.2-2.5,7.3-6.6,12.3-12.5c5-6,9.4-12.2,13.3-18.6c3.9-6.5,5.8-11.9,5.7-16.1C76.401,91.001,75.401,89.301,73.501,88.301zM78.701,76.301c-5.4-1-10.5,1.5-15,7.6c-4.6,6.1-9.3,13.7-13.9,22.9c-4.6,9.1-9.7,17.4-15.2,25.2c-2.3,3.2-4.8,5.9-7.4,8.1c0.6,0.5,1.2,1,1.8,1.5c2.5-2.1,4.9-4.7,7.1-7.8c5.8-7.9,11-16.6,15.7-25.9c4.3-8.4,8.6-15.6,13-21.6c4.2-5.9,8.7-8.5,13.4-7.7c2.4,0.8,3.7,4.1,3.8,9.9c0.1,6-1.7,13.5-5.5,22.5c-3.7,9.1-10,17.8-18.8,26.1c-5,4.8-11,8.8-18,12.2c0.8,0.4,1.6,0.9,2.4,1.4c6.7-3.4,12.4-7.3,17.2-11.9c9.1-8.6,15.5-17.6,19.4-27c3.8-9.3,5.7-17.1,5.6-23.3C84.201,81.401,82.401,77.401,78.701,76.301z" stroke="#000000" stroke-width="0"/>
				</g>
			</mask>
			<mask id="signthreadmask">
				<g transform="rotate(0,80,80) translate(42.5,42.5) scale(0.46875,0.46875)">
					<path class="maskpath" fill="#FFFFFF" d="M160.001,80.001c0-22.1-7.8-41-23.4-56.6c-15.7-15.7-34.5-23.5-56.6-23.4c-22.1-0.1-40.9,7.7-56.6,23.4c-15.6,15.6-23.5,34.5-23.4,56.6c-0.1,22,7.8,40.9,23.4,56.5c15.7,15.6,34.5,23.4,56.6,23.5c22.1-0.1,40.9-7.9,56.6-23.5C152.201,120.901,160.001,102.001,160.001,80.001z"/>
					<path class="maskpath" fill="#000000" d="M126.701,24.101c6.8,6.9,12,14.9,15.7,23.9c3.9,9.4,5.8,19.2,5.8,29.5c0,9.5-1.9,18.6-5.4,27.3c-3.5,8.4-8.3,15.9-14.6,22.4c-6.3,6.4-13.5,11.5-21.6,15c-8.5,3.7-17.3,5.6-26.5,5.6c-9.3,0-18.1-1.9-26.6-5.6c-8.1-3.5-15.4-8.6-21.6-15c-13.4-13.8-20-30.4-20-49.7c0-18.1,6.2-33.5,18.5-46.2c12.4-12.8,27.2-19.1,44.6-19.1c17.5,0,32.4,6.3,44.7,19.1c12.4,12.7,18.6,28.1,18.6,46.2c0,16.6-5.7,30.8-17.1,42.5c-11.4,11.8-25.1,17.6-41.1,17.6c-16.1,0-29.9-5.8-41.2-17.6c-11.4-11.7-17.1-25.9-17.1-42.5c0-15.2,5.2-28.2,15.6-39c10.5-10.8,23-16.2,37.6-16.2c14.8,0,27.3,5.4,37.7,16.2c10.4,10.8,15.6,23.8,15.6,39c0,13.7-4.7,25.5-14.1,35.3c-9.5,9.7-20.8,14.6-34.1,14.6c-13.4,0-24.8-4.9-34.2-14.6c-9.5-9.8-14.2-21.6-14.2-35.3c0-12.5,4.2-23.1,12.7-31.8c8.5-8.8,18.7-13.1,30.6-13.1c12.1,0,22.3,4.3,30.7,13.1c8.5,8.7,12.8,19.3,12.8,31.8c0,11-3.8,20.3-11.3,28.1c-7.5,7.7-16.5,11.6-27.1,11.6c-10.7,0-19.8-3.9-27.2-11.6c-7.6-7.8-11.3-17.1-11.3-28.1c0-9.6,3.3-17.8,9.8-24.6c6.6-6.7,14.4-10.1,23.6-10.1c9.3,0,17.2,3.4,23.8,10.1c6.5,6.8,9.8,15,9.9,24.6c-0.1,8.1-2.9,15.1-8.5,20.9c-5.6,5.7-12.3,8.6-20.1,8.6c-7.9,0-14.7-2.9-20.3-8.6c-5.6-5.8-8.4-12.8-8.4-20.9c0-6.8,2.3-12.6,7-17.4c4.6-4.8,10.1-7.2,16.6-7.2c6.6,0,12.1,2.4,16.8,7.2c4.6,4.8,6.9,10.6,7,17.4c0,5.3-1.9,9.8-5.6,13.6c-3.6,3.8-8,5.7-13.1,5.7c-5.2,0-9.6-1.9-13.3-5.7c-3.7-3.8-5.5-8.3-5.5-13.6c0-4,1.3-7.3,4.1-10.2c2.6-2.7,5.9-4.1,9.6-4.1c3.9,0,7.1,1.4,9.8,4.1c2.7,2.9,4.1,6.2,4.1,10.2c0,2.5-0.9,4.7-2.6,6.5c-1.8,1.7-3.8,2.5-6.2,2.5c-2.5,0-4.6-0.8-6.3-2.5c-1.8-1.8-2.6-4-2.6-6.5c-0.1-1.2,0.3-2.2,1.1-2.9c0.7-0.8,1.7-1.2,2.7-1.2c1.2,0,2.1,0.4,2.9,1.2l0,0c0.8,0.7,1.2,1.7,1.2,2.9c0,0.2,0.1,0.5,0.3,0.7c0.1,0.1,0.4,0.2,0.7,0.3c0.2-0.1,0.5-0.2,0.7-0.3c0.1-0.2,0.2-0.5,0.3-0.7c-0.1-1.8-0.6-3.2-1.8-4.3c-1.1-1.2-2.6-1.8-4.3-1.8c-1.6,0-3,0.6-4.1,1.8l0,0c-1.1,1.1-1.7,2.5-1.7,4.3c0,3,1,5.7,3.1,7.8c2.2,2.2,4.7,3.2,7.8,3.2c2.9,0,5.5-1,7.6-3.2c2.1-2.1,3.2-4.8,3.2-7.8c0-4.5-1.6-8.4-4.6-11.6c-3.1-3.1-6.9-4.7-11.3-4.7c-4.3-0.1-8,1.5-11.1,4.7c-3.1,3.2-4.6,7.1-4.6,11.6c0,5.8,2,10.9,6.1,15c4,4.2,8.9,6.3,14.7,6.3c5.7,0,10.5-2.1,14.6-6.3c4-4.1,6.1-9.2,6.1-15c-0.1-7.3-2.6-13.6-7.6-18.8c-5-5.2-11.1-7.8-18.2-7.8c-7,0-13,2.6-18,7.8c-5.1,5.2-7.6,11.5-7.6,18.8c0,8.6,3,16.1,9,22.3c6,6.1,13.2,9.2,21.7,9.2c8.4,0,15.6-3.1,21.6-9.2c5.9-6.2,8.9-13.7,8.9-22.3c0-10.2-3.4-18.8-10.4-26c-6.9-7.1-15.3-10.7-25.2-10.7c-9.7,0-18.1,3.6-25,10.7c-6.9,7.2-10.4,15.8-10.4,26c0,11.5,3.9,21.3,11.8,29.5c7.9,8.1,17.4,12.2,28.7,12.2c11.1,0,20.7-4.1,28.6-12.2c7.8-8.2,11.8-18,11.8-29.5c0-13-4.5-24.1-13.3-33.2c-8.9-9.2-19.6-13.7-32.2-13.7c-12.5,0-23.2,4.5-32,13.7c-8.9,9.1-13.3,20.2-13.3,33.2c0,14.3,4.9,26.5,14.7,36.7c9.9,10.2,21.7,15.2,35.7,15.2c13.8,0,25.7-5,35.5-15.2c9.8-10.2,14.7-22.4,14.7-36.7c0-15.8-5.4-29.2-16.1-40.4c-10.8-11.2-23.9-16.8-39.2-16.7c-15.2-0.1-28.2,5.5-39,16.7c-10.8,11.2-16.2,24.6-16.2,40.4c0,17.1,5.9,31.8,17.6,43.9c11.8,12.2,26,18.2,42.7,18.2c16.6,0,30.8-6,42.5-18.2c11.7-12.1,17.7-26.8,17.7-43.9c0-18.6-6.4-34.5-19.1-47.6c-12.8-13.2-28.1-19.7-46.2-19.7c-17.9,0-33.2,6.5-46,19.7c-12.7,13.1-19.1,29-19.1,47.6c0,19.9,6.8,36.9,20.5,51.1c6.5,6.6,14,11.8,22.4,15.5c8.6,3.8,17.7,5.7,27.3,5.7c9.5,0,18.6-1.9,27.3-5.7c8.3-3.7,15.7-8.9,22.2-15.5c6.5-6.7,11.5-14.4,15.1-23c3.6-9,5.4-18.4,5.5-28.1c-0.1-10.5-2-20.6-5.9-30.2c-3.8-9.3-9.2-17.5-16.1-24.6c-6.9-7.2-14.9-12.7-23.9-16.6c-9.3-4.1-19-6.1-29.3-6.1c-10.1,0-19.9,2-29.1,6.1c-9,3.9-16.9,9.4-23.9,16.6c-6.9,7.1-12.3,15.3-16.1,24.6c-3.9,9.6-5.9,19.7-5.9,30.2c0,11.1,2.1,21.8,6.3,32.1c4.1,9.8,9.8,18.6,17.1,26.2c7.4,7.6,15.9,13.5,25.5,17.7c9.9,4.4,20.3,6.5,31.2,6.5c10.8,0,21.1-2.1,31.1-6.5c9.5-4.2,18-10.1,25.4-17.7c7.4-7.6,13.1-16.4,17.2-26.2c4.1-10.3,6.2-21,6.2-32.1c0-0.3-0.1-0.6-0.3-0.7c-0.2-0.2-0.4-0.3-0.7-0.3c-0.2,0-0.5,0.1-0.7,0.3c-0.2,0.1-0.3,0.4-0.3,0.7c0,10.9-2,21.3-6.1,31.3c-3.9,9.6-9.6,18.2-16.7,25.6c-7.3,7.4-15.5,13.2-24.8,17.3c-9.7,4.2-19.8,6.3-30.3,6.3c-10.6,0-20.8-2.1-30.4-6.3c-9.3-4.1-17.6-9.9-24.8-17.3c-7.2-7.4-12.8-16-16.7-25.6c-4.2-10-6.2-20.4-6.2-31.3c0-10.3,1.9-20.1,5.8-29.5c3.7-9,8.9-17,15.6-23.9c6.8-6.9,14.5-12.4,23.2-16.2c9.1-3.9,18.5-5.9,28.4-5.9c10,0,19.5,2,28.5,5.9C112.301,11.701,120.001,17.201,126.701,24.101z" stroke="#000000" stroke-width="0"/>
				</g>
			</mask>

			<g id="ringsolid_shape">
				<path class="maskpath" d="M 80, 80m -80, 0a 80,80 0 1,1 160,0a 80,80 0 1,1 -160,0 zM 80, 80m -75.5, 0a 75.5,75.5 0 1,0 151,0a 75.5,75.5 0 1,0 -151,0 z"/>
			</g>
			<g id="ringsawtooth_shape">
				<path class="maskpath" d="M73.188,0.292c16.21-1.399,32.852,2.237,46.906,10.474c17.77,10.268,31.365,27.587,36.88,47.377c4.597,16.16,3.95,33.769-1.887,49.528c-4.159,11.322-10.949,21.674-19.677,29.997c-12.876,12.529-30.145,20.437-48.043,21.999c-12.126,1.1-24.532-0.521-35.904-4.911c-16.189-6.113-30.19-17.745-39.343-32.415C3.425,108.567-0.789,92.042,0.122,75.794c0.395-8.295,2.141-16.521,5.1-24.278c5.011-13.238,13.686-25.038,24.713-33.894C42.187,7.692,57.471,1.578,73.188,0.292z M77.054,4.95c-1.034-0.991-2.126-1.92-3.21-2.855c-0.845,1.104-1.733,2.176-2.642,3.23c-1.167-0.81-2.312-1.655-3.479-2.468c-0.785,1.175-1.57,2.352-2.425,3.477c-1.195-0.78-2.368-1.605-3.615-2.3c-0.728,1.183-1.354,2.425-2.159,3.558c-1.215-0.677-2.46-1.296-3.671-1.985c-0.611,1.286-1.149,2.607-1.814,3.867c-1.331-0.5-2.626-1.094-3.952-1.608c-0.523,1.261-0.994,2.544-1.479,3.817c-1.374-0.35-2.699-0.86-4.048-1.288c-0.453,1.323-0.77,2.692-1.338,3.973c-1.341-0.36-2.697-0.654-4.045-0.979c-0.345,1.374-0.499,2.798-0.974,4.134c-1.391-0.282-2.79-0.531-4.194-0.745c-0.141,1.419-0.226,2.858-0.558,4.249c-1.381-0.191-2.763-0.35-4.146-0.498c-0.179,1.444-0.148,2.901-0.297,4.348c-1.469-0.015-2.938-0.131-4.403-0.267c0.136,1.464,0.249,2.931,0.267,4.403c-1.444,0.153-2.903,0.11-4.345,0.297c0.124,1.358,0.334,2.707,0.471,4.063c-1.324,0.519-2.823,0.448-4.229,0.642c0.222,1.404,0.445,2.808,0.75,4.194c-1.336,0.476-2.76,0.629-4.134,0.974c0.299,1.316,0.642,2.622,0.926,3.94l-0.105,0.194c-1.238,0.513-2.551,0.808-3.814,1.25c0.43,1.349,0.931,2.674,1.298,4.043c-1.278,0.488-2.563,0.958-3.826,1.484c0.513,1.318,1.092,2.611,1.61,3.927c-1.243,0.707-2.584,1.215-3.869,1.839c0.689,1.21,1.308,2.455,1.985,3.67c-1.132,0.803-2.37,1.432-3.55,2.151c0.669,1.265,1.512,2.425,2.292,3.623c-1.13,0.855-2.307,1.643-3.485,2.433c0.808,1.172,1.656,2.317,2.468,3.489c-1.059,0.893-2.124,1.784-3.225,2.624c0.9,1.097,1.904,2.104,2.79,3.21c-0.855,1.127-2.078,1.895-2.999,2.961c1.037,1.009,2.058,2.035,3.074,3.064c-1.019,0.961-1.884,2.063-2.888,3.037c1.069,0.948,2.189,1.836,3.25,2.797c-0.825,1.112-1.628,2.242-2.465,3.346c1.162,0.8,2.332,1.59,3.477,2.416c-0.682,1.243-1.753,2.327-2.201,3.658c1.107,0.778,2.347,1.346,3.459,2.116c-0.649,1.25-1.333,2.48-1.975,3.736c1.26,0.637,2.566,1.183,3.824,1.829c-0.417,1.346-1.072,2.604-1.558,3.927c1.226,0.563,2.665,0.818,3.751,1.59c-0.294,1.381-0.888,2.677-1.255,4.041c1.328,0.393,2.687,0.679,3.987,1.17c-0.344,1.363-0.667,2.735-0.961,4.111c1.338,0.279,2.694,0.496,4.008,0.878c-0.018,1.424-0.498,2.828-0.637,4.252c1.417,0.236,2.868,0.302,4.254,0.697c-0.193,1.379-0.352,2.763-0.498,4.146c1.444,0.173,2.901,0.143,4.35,0.294c-0.041,1.417-0.131,2.835-0.27,4.247c1.47,0.03,2.931-0.221,4.403-0.093c0.161,1.416,0.078,2.855,0.322,4.264c1.363-0.221,2.747-0.249,4.116-0.438c0.34,1.336,0.405,2.72,0.556,4.086c1.421-0.128,2.815-0.448,4.219-0.689c0.435,1.341,0.626,2.745,0.943,4.116c1.351-0.317,2.712-0.602,4.045-0.984c0.589,1.278,0.886,2.662,1.351,3.985c1.343-0.445,2.672-0.931,4.036-1.306c0.48,1.316,0.976,2.624,1.477,3.932c1.303-0.493,2.536-1.162,3.849-1.625l0.209,0.065c0.619,1.22,1.135,2.491,1.723,3.729c1.233-0.694,2.461-1.407,3.764-1.962c0.712,1.22,1.384,2.465,2.088,3.69c1.198-0.777,2.403-1.544,3.59-2.339c0.855,1.127,1.643,2.305,2.43,3.479c1.165-0.855,2.31-1.746,3.487-2.589c0.906,1.051,1.787,2.125,2.629,3.23c1.092-0.853,2.076-1.837,3.2-2.645c1.16,0.8,1.894,2.063,2.963,2.971c1.042-0.963,1.93-2.121,3.072-2.961c0.896,0.586,1.597,1.417,2.423,2.093c0.224,0.138,0.438,0.493,0.745,0.372c0.958-0.974,1.693-2.153,2.732-3.052c1.077,0.888,2.187,1.733,3.296,2.576c0.777-1.175,1.58-2.33,2.4-3.474c1.228,0.757,2.385,1.63,3.668,2.297c0.674-1.245,1.336-2.501,2.105-3.691c1.246,0.665,2.486,1.331,3.734,1.99c0.719-1.228,1.037-2.763,2.002-3.802c1.286,0.468,2.471,1.17,3.761,1.633c0.496-1.315,0.946-2.649,1.512-3.937c1.369,0.445,2.729,0.923,4.108,1.343c0.397-1.331,0.687-2.692,1.175-3.995c1.361,0.357,2.737,0.662,4.111,0.969c0.249-1.376,0.531-2.748,0.891-4.099c1.414,0.224,2.813,0.554,4.242,0.689c0.222-1.369,0.314-2.763,0.697-4.101c1.364,0.191,2.743,0.219,4.104,0.44c0.244-1.409,0.161-2.846,0.332-4.262c1.419-0.13,2.831,0.124,4.25,0.091c0.03-1.419-0.214-2.831-0.096-4.25c1.419-0.171,2.855-0.093,4.27-0.327c-0.224-1.366-0.259-2.752-0.438-4.121c1.338-0.357,2.727-0.468,4.093-0.687c-0.151-1.424-0.47-2.82-0.692-4.234c1.351-0.37,2.725-0.644,4.104-0.896c-0.307-1.374-0.611-2.75-0.969-4.111c1.296-0.486,2.652-0.775,3.978-1.17c-0.458-1.364-0.928-2.725-1.351-4.099c1.293-0.579,2.64-1.026,3.963-1.527c-0.373-0.983-0.831-1.932-1.281-2.88c-0.103-0.345-0.42-0.692-0.279-1.059c1.185-0.722,2.503-1.183,3.729-1.824c-0.659-1.248-1.328-2.488-1.99-3.733c1.152-0.783,2.433-1.349,3.601-2.106c-0.46-1.333-1.53-2.42-2.204-3.668c1.142-0.826,2.312-1.613,3.47-2.416c-0.868-1.107-1.746-2.204-2.579-3.333c0.956-1.024,2.222-1.744,3.11-2.815c-0.732-1.117-1.759-2.02-2.619-3.042c1.014-1.029,2.035-2.048,3.064-3.062c-0.979-1.029-2.108-1.897-3.062-2.949c0.928-1.054,1.834-2.131,2.732-3.215c-1.107-0.848-2.191-1.726-3.238-2.644c0.863-1.16,1.739-2.31,2.597-3.475c-1.175-0.785-2.35-1.575-3.479-2.425c0.777-1.203,1.61-2.37,2.302-3.625c-1.22-0.682-2.445-1.354-3.653-2.056c0.554-1.301,1.266-2.531,1.962-3.761c-1.278-0.589-2.556-1.183-3.844-1.746c0.458-1.386,1.152-2.677,1.676-4.038c-1.309-0.503-2.617-0.996-3.933-1.477c0.373-1.364,0.86-2.692,1.306-4.036c-1.323-0.465-2.705-0.765-3.985-1.351c0.382-1.336,0.669-2.697,0.983-4.048c-1.374-0.3-2.775-0.506-4.113-0.941c0.239-1.404,0.556-2.797,0.687-4.216c-1.366-0.148-2.748-0.227-4.086-0.556c0.184-1.369,0.219-2.755,0.438-4.119c-1.414-0.229-2.848-0.153-4.264-0.324c-0.128-1.469,0.126-2.934,0.091-4.403c-1.412,0.143-2.828,0.231-4.245,0.271c-0.153-1.449-0.113-2.906-0.297-4.353c-1.386,0.148-2.772,0.307-4.151,0.498c-0.377-1.389-0.46-2.835-0.689-4.251c-1.417,0.211-2.828,0.468-4.234,0.734c-0.365-1.351-0.646-2.727-0.893-4.106c-1.378,0.292-2.75,0.617-4.113,0.961c-0.491-1.3-0.777-2.662-1.17-3.987c-1.384,0.413-2.742,0.9-4.113,1.341c-0.566-1.255-1.017-2.559-1.522-3.839c-1.288,0.506-2.559,1.054-3.829,1.6c-0.77-1.22-1.273-2.581-1.919-3.864c-1.255,0.639-2.486,1.326-3.736,1.975c-0.763-1.15-1.439-2.353-2.113-3.555c-1.281,0.667-2.438,1.54-3.664,2.294c-0.817-1.142-1.623-2.294-2.395-3.469c-1.125,0.815-2.247,1.635-3.364,2.458c-0.971-1.049-1.864-2.166-2.8-3.248c-0.974,1.006-2.078,1.869-3.037,2.888c-1.032-1.016-2.053-2.043-3.072-3.074C78.966,2.851,78.106,3.991,77.054,4.95z"/>
			</g>
			<mask id="ringforemask">
				<g id="ringforemask_solid" display="inline">
					<use xlink:href="#ringsolid_shape" fill="#FFFFFF"/>
				</g>
				<g id="ringforemask_sawtooth" display="none">
					<use xlink:href="#ringsawtooth_shape" fill="#FFFFFF"/>
				</g>
			</mask>
		</defs>

	</g>
<g id="gtxta"><g transform="rotate(-87.5,80,80)"><g transform="translate(72.2,8) scale(0.015234375000000001,0.02361328125)"><g transform="scale(1,-1) translate(0,-820)"><path d="M123 753Q151 731 169 694Q185 660 190 625Q193 597 211 580Q230 564 258 570Q286 574 296 605Q303 630 292 660Q277 694 239 725Q200 755 132 774Q122 778 119 770Q116 760 123 753V753V753ZM38 525Q63 501 80 465Q93 431 97 395Q98 368 116 350Q134 334 161 338Q191 342 201 371Q210 396 200 425Q187 459 151 492Q114 523 48 545Q38 549 34 542Q31 532 38 525V525V525ZM317 564L132 171Q126 161 110 162Q79 161 43 165Q30 166 28 160Q27 153 35 148Q99 133 121 95Q128 35 113 -36Q97 -115 126 -156Q144 -178 175 -175Q209 -171 225 -133Q247 -78 220 5Q207 45 206 98Q203 128 211 157L336 559Q339 568 336 573Q333 577 328 575Q322 574 317 564V564V564ZM457 598Q457 598 458 597Q471 551 502 490Q530 438 579 391Q575 390 573 387Q509 345 430 314Q357 289 307 278Q298 278 296 271Q296 264 305 262Q362 265 450 282Q538 301 619 340Q623 343 631 346Q667 321 706 302Q787 263 869 245Q884 242 887 252Q894 280 920 308Q947 338 975 344Q988 347 987 355Q986 362 971 364Q892 368 805 388Q763 398 726 411Q738 421 750 432Q787 472 820 530Q839 567 848 598H970V598Q983 598 987 605Q990 611 983 619V619Q946 671 889 705Q877 712 869 703Q839 669 814 634Q810 628 802 625Q798 625 795 625H673Q689 634 698 656Q704 680 694 704Q681 734 648 759Q615 786 557 802Q547 806 543 797Q539 787 547 780Q568 759 581 729Q593 701 594 671Q595 649 610 633Q616 629 622 625H417H409L348 632Q335 635 337 628Q341 609 347 592Q348 585 358 589L417 598H457V598ZM557 510Q515 547 485 598H730Q712 540 677 487Q662 468 645 447Q597 474 557 510V510V510ZM413 210Q413 131 408 72Q402 8 381 -40Q359 -86 322 -119Q286 -150 248 -166Q241 -169 241 -176Q242 -180 251 -180Q306 -174 366 -147Q430 -116 469 -63Q500 -11 510 62Q520 129 520 204Q519 211 528 214Q549 221 549 233Q549 246 524 251Q470 260 419 262Q413 263 413 256Q413 228 413 210V210V210ZM723 243L722 -141Q722 -162 738 -172Q771 -188 804 -176Q829 -163 829 -137L830 184Q830 197 840 200Q862 207 863 223Q863 239 835 245Q780 255 729 260Q722 259 722 254Q723 248 723 243V243V243V244V243Z" fill="#FF0100"/></g></g></g><g transform="rotate(-52.5,80,80)"><g transform="translate(72.2,8) scale(0.015234375000000001,0.02361328125)"><g transform="scale(1,-1) translate(0,-820)"><path d="M228 466H783Q792 467 793 455V-26Q793 -39 783 -51Q776 -58 758 -59Q740 -60 691 -55Q676 -54 673 -63Q672 -75 682 -79Q722 -86 747 -117Q768 -144 771 -168Q772 -178 780 -177Q822 -178 863 -154Q903 -129 904 -69V411Q904 429 918 437Q948 447 950 462Q951 475 938 489Q908 514 839 547Q827 553 819 544Q806 528 787 502Q780 495 763 493H564V634H773H808H962V634Q975 634 979 641Q982 647 975 655V655Q933 710 872 747Q859 754 851 745Q820 708 792 671Q788 664 773 661H564V726Q564 736 571 737Q596 744 596 759Q596 769 575 778Q521 793 459 798Q452 799 452 794Q452 785 452 777V661H117H109L48 668Q35 671 37 664Q41 645 47 628Q48 621 58 625L117 634H452V493H225Q173 521 129 536Q122 537 119 536Q118 535 117 528V-139Q117 -158 126 -167Q136 -177 158 -178Q194 -178 213 -162Q228 -150 228 -117V466V466ZM329 436Q351 414 364 382Q374 351 376 320Q377 296 391 280Q406 265 429 268Q454 269 464 294Q473 316 466 342Q456 373 425 402Q395 430 338 453Q329 457 326 451Q323 442 329 436V436V436ZM450 74V-114Q450 -139 467 -148Q500 -164 533 -151Q557 -141 558 -115V74H621H642H757Q769 74 772 82Q775 89 767 101Q739 146 702 174Q689 184 678 171Q653 137 637 109Q633 105 621 101H558V226H598H619H729Q741 226 744 234Q747 241 739 253Q712 296 677 324Q664 334 654 320Q629 287 614 261Q610 257 598 253H549Q571 269 594 295Q625 329 650 374Q654 384 664 388Q683 392 684 405Q684 418 663 425Q617 443 571 451Q561 452 560 445Q559 436 556 423Q555 383 545 332Q535 289 519 253H361H353L289 260Q279 261 280 256Q284 238 288 221Q289 215 296 218L361 226H450V101H333H325L261 108Q251 109 252 104Q256 86 260 69Q261 63 268 66L333 74H450V74V75V74Z" fill="#FF0100"/></g></g></g><g transform="rotate(-17.5,80,80)"><g transform="translate(72.2,8) scale(0.015234375000000001,0.02361328125)"><g transform="scale(1,-1) translate(0,-820)"><path d="M664 38V-144Q664 -165 681 -176Q715 -192 749 -179Q774 -166 775 -139V38H826H868H953V38Q965 38 968 46Q972 55 963 66Q936 109 901 136Q888 146 878 132Q853 99 838 73Q834 69 823 65H775V238H823H865H945V238Q957 238 960 246Q964 255 955 266Q930 306 896 333Q883 343 875 329Q850 298 835 273Q831 269 820 265H775L776 318Q776 331 786 334Q811 341 811 358Q811 374 781 381Q723 391 671 396Q664 396 664 390Q664 386 665 378L664 265H523Q489 299 451 327Q438 337 427 327Q411 305 399 284Q395 278 380 277H281H276Q288 302 301 327Q304 336 312 337Q333 340 334 352Q334 365 311 373Q259 389 204 396Q197 395 195 387Q194 380 193 373Q183 283 140 194Q98 109 49 54Q43 50 46 43Q47 39 55 42Q125 76 192 151Q204 138 214 118Q227 90 232 58Q235 34 251 20Q263 10 281 11Q274 2 268 -8Q190 -114 98 -170Q91 -174 92 -182Q95 -189 108 -185Q214 -149 328 -41Q434 59 492 207Q498 223 510 226Q525 230 530 238H664V65H584Q594 95 605 126Q609 150 622 153Q646 157 646 173Q645 186 604 200Q559 213 527 221Q518 222 518 217Q518 216 518 213Q517 182 496 110L465 95Q458 91 464 83Q488 47 509 14Q516 2 523 7L566 38H664V38ZM319 88Q306 118 274 144Q249 163 211 176Q236 209 259 247L281 250H383Q384 251 385 250Q386 249 387 246Q359 155 321 80Q320 84 319 88V88V88ZM456 654Q477 632 491 598Q503 565 503 531Q504 506 520 488Q538 472 565 474Q593 477 606 505Q615 530 606 558Q594 592 561 623Q539 642 508 658Q667 674 815 700Q830 703 846 699Q861 695 868 704Q875 716 859 731Q816 773 768 802Q761 805 752 800Q661 757 526 725Q354 683 117 663Q107 663 107 654Q107 647 117 645Q156 644 205 644Q205 638 210 633Q232 612 244 581Q254 551 257 521Q258 499 271 482Q290 466 317 470Q347 474 357 503Q364 525 355 550Q343 581 311 608Q286 629 246 644Q334 647 456 654V654V654ZM836 426Q827 378 808 329Q805 317 809 313Q813 310 826 314Q884 344 956 391Q963 395 970 395Q986 395 994 404Q998 414 987 426Q939 465 882 491Q873 495 865 492Q843 479 828 462Q821 456 811 453H710Q743 471 786 503Q835 543 869 584Q873 590 882 590Q900 589 903 598Q907 608 889 621Q841 657 789 680Q782 683 779 676Q776 666 772 654Q763 612 739 552Q718 501 687 456Q686 455 685 453H217H203L165 456Q164 472 160 487Q159 494 154 495Q150 495 147 488Q131 451 115 433Q97 417 73 406Q45 396 33 367Q23 339 33 318Q48 296 75 292Q103 289 128 307Q153 335 163 385Q166 404 166 422L217 426H836V426V427V426Z" fill="#FF0100"/></g></g></g><g transform="rotate(17.5,80,80)"><g transform="translate(72.2,8) scale(0.015234375000000001,0.02361328125)"><g transform="scale(1,-1) translate(0,-820)"><path d="M722 266V-145Q722 -166 738 -176Q771 -192 804 -180Q829 -167 829 -141V266H837H858H973Q985 266 988 274Q991 281 983 293Q955 338 918 366Q905 376 894 363Q869 329 853 301Q849 297 837 293H829V502H937Q949 502 952 510Q955 517 947 529Q920 572 885 600Q872 610 862 596Q843 571 829 550L830 708Q830 721 840 724Q862 731 863 747Q863 763 835 769Q780 779 729 784Q722 783 722 778Q723 772 723 767L722 529H649Q650 544 650 556V725Q649 734 658 736Q677 740 678 755Q678 768 650 774Q598 781 548 782Q544 782 543 776Q543 767 543 760V725V556Q543 543 543 529H529H521L457 536Q447 537 448 532Q452 514 456 497Q457 491 464 494L529 502H543Q543 441 543 368Q543 331 541 293H509H501L437 300Q427 301 428 296Q432 278 436 261Q437 255 444 258L509 266H540Q536 199 529 134Q510 25 468 -49Q426 -118 374 -158Q367 -162 370 -170Q373 -176 380 -173Q447 -154 512 -97Q581 -36 615 85Q636 164 643 266H722V266ZM722 293H645Q646 315 647 337Q648 428 649 502H722V293V293ZM301 621H283L284 718Q284 731 294 734Q319 741 319 758Q319 774 289 781Q231 791 179 796Q172 796 172 790Q172 786 173 778L172 621H117H109L45 628Q35 629 36 624Q40 606 44 589Q45 583 52 586L117 594H172V489H153H145L81 496Q71 497 72 492Q76 474 80 457Q81 451 88 454L153 462H172V361H105H97L33 368Q23 369 24 364Q28 346 32 329Q33 323 40 326L105 334H166Q148 208 115 124Q81 33 32 -26Q25 -33 28 -41Q32 -47 44 -41Q108 -1 172 91V-140Q172 -161 189 -172Q223 -188 257 -175Q282 -162 283 -135V239Q304 215 318 181Q331 141 334 101Q335 70 353 49Q369 33 393 35Q418 36 430 62Q443 89 435 121Q425 161 388 199Q352 238 283 269V334H310H331H441Q453 334 456 342Q459 349 451 361Q424 404 389 432Q376 442 366 428Q341 395 326 369Q322 365 310 361H283V462H289H393Q405 462 408 470Q411 477 403 489Q378 531 344 557Q331 567 323 553Q298 522 283 498V594H301H322H421Q433 594 436 602Q439 609 431 621Q407 661 376 686Q363 696 355 683Q331 652 316 628Q312 624 308 621Q304 621 301 621V621V621V622V621Z" fill="#FF0100"/></g></g></g><g transform="rotate(52.5,80,80)"><g transform="translate(72.2,8) scale(0.015234375000000001,0.02361328125)"><g transform="scale(1,-1) translate(0,-820)"><path d="M452 214V-144Q452 -165 469 -176Q503 -192 537 -179Q562 -166 563 -139V214H793V186Q793 165 801 154Q810 142 833 142Q869 145 887 155Q903 165 904 185V469Q904 482 914 487Q935 496 935 508Q935 518 923 528Q877 561 826 579Q819 582 814 578Q801 565 788 548Q782 541 776 541H563L564 710Q564 723 574 726Q599 733 599 750Q599 766 569 773Q511 783 459 788Q452 788 452 782Q452 778 453 770L452 541H237H233Q176 572 127 587Q117 591 116 584Q117 580 117 577V176Q116 155 124 149Q137 139 159 139Q187 140 210 153Q228 165 228 192V214H452V214ZM452 241H228V512L237 514H452V241V241ZM563 514H782Q789 517 793 508V241H563V514V514V515V514Z" fill="#FF0100"/></g></g></g><g transform="rotate(87.5,80,80)"><g transform="translate(72.2,8) scale(0.015234375000000001,0.02361328125)"><g transform="scale(1,-1) translate(0,-820)"><path d="M144 700Q174 678 194 643Q212 609 218 574Q222 546 242 529Q263 514 290 521Q320 528 328 559Q334 587 321 615Q305 649 264 678Q224 706 153 723Q143 727 139 717Q136 707 144 700V700V700ZM366 756Q399 725 420 680Q438 637 441 592Q444 558 466 535Q485 519 513 522Q543 525 555 555Q567 586 556 621Q543 666 500 706Q457 746 377 777Q367 781 362 773Q358 763 366 756V756V756ZM824 458Q806 403 777 345Q773 335 777 329Q780 326 794 329Q860 366 942 422Q949 426 957 425Q973 425 981 434Q985 444 974 456Q928 495 871 522Q862 526 854 523Q832 510 816 493Q810 489 800 485H665Q701 513 745 560Q800 621 835 682Q839 689 848 690Q866 691 868 701Q869 711 851 723Q796 753 739 769Q732 770 730 764Q729 754 725 740Q718 685 691 606Q669 542 635 485H217H203L166 488Q162 503 158 516Q155 523 150 523Q146 523 145 516Q135 468 119 446Q103 424 76 408Q49 393 42 363Q35 335 49 315Q67 296 94 294Q122 295 144 317Q169 351 173 406Q174 431 171 454L217 458H824V458ZM767 125H555V160Q555 169 563 171Q585 178 586 192Q586 198 583 201Q652 237 734 284Q741 287 749 285Q765 282 774 290Q780 300 771 313Q728 353 675 384Q668 390 659 386Q637 376 621 360Q615 356 611 353Q607 353 604 353H261H253L193 361Q181 365 183 356Q187 338 192 318Q193 314 206 318L261 326H622Q583 271 532 217Q489 224 452 226Q445 227 445 217Q444 208 445 201L444 125H129H121L60 132Q47 135 49 128Q53 109 59 92Q60 85 70 89L129 98H444V-42Q444 -52 436 -61Q429 -68 416 -67Q367 -66 314 -60Q305 -60 304 -70Q303 -79 314 -82Q363 -95 386 -123Q405 -145 407 -175Q408 -181 419 -181Q483 -180 519 -150Q555 -120 555 -82V98H767H802H942V98Q955 98 959 105Q962 111 955 119V119Q918 171 861 205Q849 212 841 203Q811 169 786 134Q782 128 774 125Q770 125 767 125V125V125V126V125Z" fill="#FF0100"/></g></g></g></g><g id="gtxtb"><g transform="translate(28.5,109.925) scale(0.0126953125,0.019677734375000002)"><g transform="scale(1,-1) translate(0,-820)"><path d="M641 585H221H213L152 592Q139 595 141 588Q145 569 151 552Q152 545 162 549L221 558H641H676H830V558Q843 558 847 565Q850 571 843 579V579Q801 634 740 671Q727 678 719 669Q688 632 660 595Q656 588 641 585V585V585ZM742 -23H137H129L68 -16Q55 -13 57 -20Q61 -39 67 -56Q68 -63 78 -59L137 -50H742H777H938V-50Q951 -50 955 -43Q958 -37 951 -29V-29Q908 29 844 66Q831 73 822 64Q789 27 762 -13Q756 -20 742 -23V-23V-23V-22V-23Z" fill="#FF0100"/></g></g><g transform="translate(46.5,109.925) scale(0.0126953125,0.019677734375000002)"><g transform="scale(1,-1) translate(0,-820)"><path d="M452 370V-132Q452 -153 469 -164Q503 -180 537 -167Q562 -154 563 -127V370H780H815H962V370Q975 370 979 377Q982 383 975 391V391Q935 445 876 480Q864 487 856 478Q825 444 799 406Q795 400 787 397Q783 397 780 397H563L564 714Q564 727 574 730Q599 737 599 754Q599 770 569 777Q511 787 459 792Q452 792 452 786Q452 782 453 774L452 397H125H117L56 404Q43 407 45 400Q49 381 55 364Q56 357 66 361L125 370H452V370V371V370Z" fill="#FF0100"/></g></g><g transform="translate(64.5,109.925) scale(0.0126953125,0.019677734375000002)"><g transform="scale(1,-1) translate(0,-820)"><path d="M324 661Q323 483 303 336Q278 179 214 59Q138 -74 41 -152Q35 -158 38 -163Q39 -167 48 -165Q145 -117 220 -39Q301 45 345 143Q385 240 404 353Q426 474 435 661Q435 667 443 670Q464 676 464 690Q464 703 437 709Q385 719 330 721Q324 721 324 711Q324 683 324 661V661V661ZM625 748Q622 757 603 763Q587 759 585 749Q576 590 594 433Q606 307 647 171Q680 62 764 -69Q828 -183 839 -167Q855 -142 896 -117Q930 -101 987 -98Q1000 -94 983 -82Q902 -33 847 34Q774 119 732 206Q686 300 661 416Q630 576 625 748V748V748V749V748Z" fill="#FF0100"/></g></g><g transform="translate(82.5,109.925) scale(0.0126953125,0.019677734375000002)"><g transform="scale(1,-1) translate(0,-820)"><path d="M571 328Q578 289 593 241Q621 139 662 63Q675 39 689 16Q667 -9 645 -32Q567 -105 444 -155Q432 -159 434 -169Q435 -178 449 -175Q588 -147 704 -70Q719 -60 734 -47Q747 -65 764 -82Q824 -143 884 -180Q894 -186 899 -172Q915 -136 938 -113Q960 -92 992 -87Q1002 -86 1003 -79Q1004 -72 995 -69Q925 -51 870 -15Q839 7 808 32Q826 57 844 86Q908 192 943 322Q947 341 960 347Q982 354 984 367Q985 380 971 392Q943 414 892 444Q877 451 871 445Q861 430 849 413Q845 406 832 405H769Q818 514 863 652Q867 665 880 667Q902 671 907 686Q911 699 894 712Q858 734 818 752Q805 759 799 751L775 713H425L370 722Q363 723 365 714Q369 705 374 698Q378 691 385 684Q392 677 398 679L438 688H488Q488 492 474 375Q462 260 428 151Q398 63 344 -18Q292 -93 227 -150Q221 -156 224 -162Q227 -166 236 -163Q312 -129 384 -61Q466 18 520 141Q553 226 571 328V328V328ZM646 237Q603 319 582 406Q598 551 599 688H767Q725 547 677 451L645 431Q638 427 644 418Q671 381 694 348Q700 339 708 344L748 376L761 378H828Q835 379 837 374Q838 370 837 354Q815 231 760 126Q753 111 743 96Q679 171 646 237V237V237ZM236 431Q226 415 216 397Q149 289 77 246Q76 245 72 243Q69 242 73 234Q85 215 117 149Q133 109 147 109Q160 109 162 130Q163 146 196 153Q217 160 245 170Q303 189 346 208Q370 218 381 224Q417 234 413 249Q410 262 374 255Q352 251 314 247Q251 238 158 241Q225 299 289 369Q346 432 383 490Q392 506 404 508Q437 509 440 526Q441 541 404 559Q361 578 310 595Q300 596 300 591Q299 588 299 586Q286 535 263 484Q250 484 233 482Q187 478 116 485Q165 531 211 588Q251 637 278 684Q285 700 297 704Q330 708 330 725Q331 740 292 755Q247 771 195 782Q185 783 185 777Q185 774 185 772Q175 691 137 613Q94 520 41 479Q40 478 37 476Q34 475 38 468Q48 449 80 390Q96 353 108 353Q120 353 122 373Q123 388 152 395Q168 401 188 410Q213 420 236 431V431V431ZM51 30Q41 29 44 19Q47 9 67 -29Q80 -56 92 -75Q99 -87 111 -85Q120 -82 122 -68Q123 -59 148 -49Q244 -3 317 37Q371 65 387 78Q399 85 396 94Q392 103 378 98Q291 71 183 51Q89 32 51 30V30V30V31V30Z" fill="#FF0100"/></g></g><g transform="translate(100.5,109.925) scale(0.0126953125,0.019677734375000002)"><g transform="scale(1,-1) translate(0,-820)"><path d="M452 370V-132Q452 -153 469 -164Q503 -180 537 -167Q562 -154 563 -127V370H780H815H962V370Q975 370 979 377Q982 383 975 391V391Q935 445 876 480Q864 487 856 478Q825 444 799 406Q795 400 787 397Q783 397 780 397H563L564 714Q564 727 574 730Q599 737 599 754Q599 770 569 777Q511 787 459 792Q452 792 452 786Q452 782 453 774L452 397H125H117L56 404Q43 407 45 400Q49 381 55 364Q56 357 66 361L125 370H452V370V371V370Z" fill="#FF0100"/></g></g><g transform="translate(118.5,109.925) scale(0.0126953125,0.019677734375000002)"><g transform="scale(1,-1) translate(0,-820)"><path d="M477 746V713V504Q477 425 477 330Q477 215 455 114Q427 14 360 -55Q293 -119 212 -157Q205 -160 206 -167Q207 -173 215 -171Q306 -155 393 -101Q486 -43 533 68Q573 167 576 301Q580 419 580 504V713Q579 722 588 724Q607 728 607 742Q607 755 580 760Q529 767 482 768Q478 768 477 762Q477 755 477 746V746V746ZM149 26Q91 13 30 4Q17 3 21 -9Q43 -64 67 -105Q79 -129 91 -126Q103 -122 106 -103Q107 -91 134 -77Q191 -46 249 -12Q333 37 386 87Q393 96 389 103Q385 109 375 103Q317 76 260 57V310H269H290H342Q335 300 333 283Q330 258 345 243Q361 228 385 231Q409 235 424 255Q452 295 454 358Q455 422 433 483Q432 489 426 489Q423 488 423 482Q419 418 404 385Q394 364 377 345Q361 375 337 394Q327 401 319 391Q297 364 282 343Q279 340 269 337H260V634H377Q389 634 392 642Q395 649 387 661Q357 707 319 737Q304 747 294 733Q269 697 252 670Q248 664 236 661H109H101L37 668Q27 669 28 664Q32 646 36 629Q37 623 44 626L109 634H149V337H117H109L45 344Q35 345 36 340Q40 322 44 305Q45 299 52 302L117 310H149V26V26ZM836 -111H820V266H826H847H957Q969 266 972 274Q975 281 967 293Q940 336 905 364Q892 374 882 360Q857 327 842 301Q838 297 826 293H820V654H824H845H965Q977 654 980 662Q983 669 975 681Q945 727 907 757Q892 767 882 753Q857 717 840 690Q836 684 824 681H677H669L605 688Q595 689 596 684Q600 666 604 649Q605 643 612 646L677 654H709V293H673H665L601 300Q591 301 592 296Q596 278 600 261Q601 255 608 258L673 266H709V-111H585H577L513 -104Q503 -103 504 -108Q508 -126 512 -143Q513 -149 520 -146L585 -138H836H857H977Q989 -138 992 -130Q995 -123 987 -111Q957 -65 919 -35Q904 -25 894 -39Q869 -75 852 -102Q848 -108 836 -111V-111V-111V-110V-111Z" fill="#FF0100"/></g></g><g transform="translate(55.5,131.925) scale(0.0126953125,0.019677734375000002)"><g transform="scale(1,-1) translate(0,-820)"><path d="M840 570Q810 495 765 421Q761 411 765 405Q769 402 782 405Q861 457 959 535Q966 538 973 538Q991 538 998 547Q1002 557 990 569Q944 608 886 635Q879 639 870 636Q848 623 832 606Q826 600 816 597H560Q579 606 587 630Q593 655 581 682Q565 713 527 741Q490 768 425 783Q415 787 411 778Q408 768 416 761Q443 740 461 707Q477 676 482 643Q486 618 504 602Q507 601 511 597H241H226L186 600Q183 616 181 631Q180 638 174 639Q170 639 168 632Q152 577 131 552Q110 527 78 510Q50 497 41 468Q32 440 45 418Q61 399 89 395Q117 395 140 415Q171 449 183 509Q187 537 188 566L241 570H840V570ZM777 329H448Q464 380 483 432Q490 451 501 452Q526 456 528 470Q529 485 501 494Q446 510 401 518Q391 521 388 511Q385 495 377 463Q358 402 332 329H133H125L64 336Q51 339 53 332Q57 313 63 296Q64 289 74 293L133 302H322Q286 208 235 109Q225 88 231 75Q234 71 240 65Q243 64 251 59Q260 58 274 52Q281 51 290 50Q390 28 475 -1Q399 -56 281 -102Q187 -135 70 -158Q61 -159 61 -168Q62 -175 71 -175Q192 -169 302 -147Q441 -116 536 -57Q552 -47 568 -35Q571 -35 574 -37Q712 -92 791 -158Q819 -183 842 -183Q867 -182 882 -160Q892 -141 889 -113Q882 -85 864 -71Q794 -10 650 23Q643 24 637 26Q679 72 708 126Q748 214 762 302H777H812H966V302Q979 302 983 309Q986 315 979 323V323Q937 378 876 415Q863 422 855 413Q824 376 796 339Q792 332 777 329V329V329ZM645 302Q638 223 605 152Q578 97 530 48Q434 66 339 73Q348 89 355 102Q389 178 421 254Q430 278 438 302H645V302V303V302Z" fill="#FF0100"/></g></g><g transform="translate(73.5,131.925) scale(0.0126953125,0.019677734375000002)"><g transform="scale(1,-1) translate(0,-820)"><path d="M769 -115H560V90H649H684H838V90Q851 90 855 97Q858 103 851 111V111Q809 166 748 203Q735 210 727 201Q696 164 668 127Q664 120 649 117H560V330H595H630H770V330Q783 330 787 337Q790 343 783 351V351Q746 403 689 437Q677 444 669 435Q639 401 614 366Q610 360 602 357Q598 357 595 357H289H281L220 364Q207 367 209 360Q213 341 219 324Q220 317 230 321L289 330H449V117H261H253L192 124Q179 127 181 120Q185 101 191 84Q192 77 202 81L261 90H449V-115H129H121L60 -108Q47 -105 49 -112Q53 -131 59 -148Q60 -155 70 -151L129 -142H769H804H958V-142Q971 -142 975 -135Q978 -129 971 -121V-121Q929 -66 868 -29Q855 -22 847 -31Q816 -68 788 -105Q784 -112 769 -115V-115V-115ZM557 717Q560 720 563 720Q585 721 589 733Q592 746 570 757Q518 781 462 794Q455 795 454 790Q453 786 451 779Q405 649 284 523Q161 400 40 333Q33 330 35 324Q36 318 44 319Q179 356 323 461Q453 561 538 690Q559 642 591 588Q627 527 669 478Q708 435 765 393Q832 347 899 327Q915 323 917 332Q920 354 941 388Q966 416 997 429Q1007 433 1005 441Q1005 447 994 446Q934 453 858 483Q788 511 727 551Q663 593 617 642Q583 678 557 717V717V717V718V717Z" fill="#FF0100"/></g></g><g transform="translate(91.5,131.925) scale(0.0126953125,0.019677734375000002)"><g transform="scale(1,-1) translate(0,-820)"><path d="M428 74H601V39Q601 20 608 10Q617 0 638 -1Q672 0 688 10Q703 20 704 39V213Q704 226 714 230Q733 239 733 249Q733 259 721 268Q679 299 631 315Q624 318 620 314Q607 302 595 288Q591 281 584 281H437H424Q376 306 334 319Q324 322 324 316Q325 312 325 310V21Q324 2 331 -4Q344 -13 364 -13Q391 -12 412 0Q428 10 428 37V74V74ZM428 101V252L437 254H590Q597 257 601 249V101H428V101ZM259 514H777V510Q777 489 785 478Q794 466 817 466Q853 469 871 479Q887 489 888 509V669Q888 682 898 687Q919 696 919 708Q919 718 907 728Q861 761 810 779Q803 782 798 778Q785 765 772 748Q766 741 760 741H272Q208 775 157 793Q150 796 149 784Q149 750 149 702V543Q149 347 139 231Q129 107 101 10Q74 -78 32 -152Q25 -159 30 -166Q34 -172 45 -166Q109 -117 157 -35Q214 68 236 203Q248 281 254 366H817Q833 367 837 363Q841 357 844 334Q847 228 843 145Q839 55 829 15Q823 -10 811 -24Q798 -40 774 -46Q740 -53 684 -41Q668 -37 664 -48Q660 -58 677 -65Q729 -87 746 -109Q765 -134 766 -163Q766 -170 775 -170Q812 -171 836 -159Q867 -146 892 -118Q911 -96 926 -54Q942 1 948 74Q955 200 953 311Q952 332 965 341Q984 354 986 366Q987 379 967 392Q933 413 888 433Q869 442 858 431Q843 418 831 402Q824 393 811 393H255Q259 453 259 514V514V514ZM259 541Q260 542 260 543V702Q260 708 260 714H766Q773 717 777 708V541H259V541V542V541Z" fill="#FF0100"/></g></g></g></g>
</svg>